<svg xmlns="http://www.w3.org/2000/svg" width="85.243" height="85.793" viewBox="0 0 85.243 85.793">
  <g id="VRT_Logo" data-name="VRT Logo" transform="translate(-686.398 6612.515)">
    <g id="Gruppe_288" data-name="Gruppe 288" transform="translate(666.727 -6553.465)">
      <g id="Gruppe_4" data-name="Gruppe 4" transform="translate(56.697 -30.718)">
        <path id="Pfad_2" data-name="Pfad 2" d="M4.2,2.4H-.118v6.27H4.2a3.14,3.14,0,1,0,0-6.27m3.754,24.17-5.5-11.537H-.118V26.574H-7.747V-4.434H4.546c6.893,0,10.6,4.881,10.6,9.978a8.916,8.916,0,0,1-5.057,8.1L16.8,26.574Z" transform="translate(7.747 4.434)" fill="#0069b4"/>
      </g>
      <g id="Gruppe_6" data-name="Gruppe 6" transform="translate(82.024 -30.718)">
        <path id="Pfad_4" data-name="Pfad 4" d="M0,0V6.8H7.632v24.21h7.632V6.8H22.89V0Z" fill="#0069b4"/>
      </g>
      <g id="Gruppe_7" data-name="Gruppe 7" transform="translate(36.057 -59.05)">
        <path id="Pfad_5" data-name="Pfad 5" d="M16.16,0A62.01,62.01,0,0,0-29.807,59.341h7.629A54.392,54.392,0,0,1,16.16,7.919Z" transform="translate(29.807)" fill="#78be19"/>
      </g>
      <g id="Gruppe_8" data-name="Gruppe 8" transform="translate(19.672 -30.718)">
        <path id="Pfad_6" data-name="Pfad 6" d="M0,0A54.253,54.253,0,0,1,15.67,28.072a61.7,61.7,0,0,1,2.68-15.587A62.259,62.259,0,0,0,10.365,0Z" fill="#0069b4"/>
      </g>
      <g id="Gruppe_9" data-name="Gruppe 9" transform="translate(50.34 16.897)">
        <path id="Pfad_7" data-name="Pfad 7" d="M19.187,2c0-1.012-.6-1.642-1.781-1.758L16.463.153c-.527-.045-.62-.3-.62-.517,0-.3.253-.574.85-.574a2.085,2.085,0,0,1,1.391.4L19-1.467a3.181,3.181,0,0,0-2.287-.7c-1.218,0-2.309.666-2.309,1.906,0,1.1.666,1.575,1.746,1.678l.942.093c.47.045.632.253.632.551,0,.449-.54.621-1.058.621a2.173,2.173,0,0,1-1.6-.563L14.1,3.1a3.254,3.254,0,0,0,2.551.862c1.414,0,2.54-.632,2.54-1.954M11.511.728c0,.793-.1,1.562-.989,1.562s-.976-.77-.976-1.562.093-1.551.976-1.551.989.759.989,1.551m1.494,2.941V-2.1H11.557v.563A1.752,1.752,0,0,0,10.1-2.167a2.023,2.023,0,0,0-1.437.527A3.09,3.09,0,0,0,8.054.728a3.117,3.117,0,0,0,.608,2.378,1.993,1.993,0,0,0,1.425.529,1.753,1.753,0,0,0,1.425-.6v.608a1.132,1.132,0,0,1-1.206,1.241,1.522,1.522,0,0,1-1.172-.46L8.2,5.37a2.8,2.8,0,0,0,2.171.782,2.431,2.431,0,0,0,2.632-2.483M5.457.338H3.182a1.618,1.618,0,0,1,.137-.643,1.039,1.039,0,0,1,1-.621,1.039,1.039,0,0,1,1,.621,1.645,1.645,0,0,1,.139.643M6.926,1.36V.694A2.574,2.574,0,0,0,4.319-2.167c-1.551,0-2.608,1.1-2.608,3.055,0,2.424,1.356,3.069,2.768,3.069a2.852,2.852,0,0,0,2.276-.942L5.847,2.13a1.655,1.655,0,0,1-1.356.563A1.236,1.236,0,0,1,3.182,1.36ZM1.217-2.1H-.357l-.965,3.7L-2.552-2.1H-3.644L-4.862,1.6l-.965-3.7H-7.413l1.838,5.987h1.229L-3.092.131l1.252,3.757H-.61Zm-8.687.5a1.8,1.8,0,0,0-1.413-.563,2.023,2.023,0,0,0-1.505.643V-2.1h-1.459V3.888h1.493V.279a1,1,0,0,1,.965-1.1A1,1,0,0,1-8.6-.467ZM-14.7.338h-2.275a1.645,1.645,0,0,1,.137-.643,1.041,1.041,0,0,1,1-.621,1.043,1.043,0,0,1,1,.621A1.645,1.645,0,0,1-14.7.338m1.471,1.022V.694a2.574,2.574,0,0,0-2.609-2.861c-1.55,0-2.608,1.1-2.608,3.055,0,2.424,1.356,3.069,2.77,3.069A2.85,2.85,0,0,0-13.4,3.015l-.908-.885a1.655,1.655,0,0,1-1.356.563A1.236,1.236,0,0,1-16.971,1.36Zm-6.24,2.528V2.623H-20c-.356,0-.517-.194-.517-.54V-.788h1.056V-1.926h-1.056V-3.7h-1.494v1.769h-.632V-.788h.632V2.176A1.623,1.623,0,0,0-20.28,3.888Zm-4.3,0V.062a2.219,2.219,0,0,0-.609-1.7,1.944,1.944,0,0,0-1.414-.527,2.048,2.048,0,0,0-1.493.62V-2.1h-1.459V3.888h1.493V.268a.971.971,0,0,1,1-1.092A.963.963,0,0,1-25.255.268V3.888Zm-6.653,0V-2.1h-1.494V1.521a.971.971,0,0,1-1,1.092A.964.964,0,0,1-33.9,1.521V-2.1h-1.493V1.727a2.219,2.219,0,0,0,.609,1.7,1.944,1.944,0,0,0,1.413.529,2.047,2.047,0,0,0,1.494-.621v.552Z" transform="translate(35.389 3.695)" fill="#0069b4"/>
      </g>
      <g id="Gruppe_10" data-name="Gruppe 10" transform="translate(35.999 6.199)">
        <path id="Pfad_8" data-name="Pfad 8" d="M20.875,2.892V-.934a2.257,2.257,0,0,0-.655-1.7,2.086,2.086,0,0,0-1.47-.527,2.287,2.287,0,0,0-1.794.757,1.853,1.853,0,0,0-1.585-.757,2.092,2.092,0,0,0-1.493.62v-.552h-1.46V2.892h1.494V-.727a.971.971,0,0,1,1-1.092A.963.963,0,0,1,15.9-.727V2.892h1.494V-.761a.965.965,0,0,1,1-1.058.962.962,0,0,1,.987,1.092V2.892ZM9.317.687a.978.978,0,0,1-.219.757,1.181,1.181,0,0,1-.942.287c-.586,0-.861-.275-.861-.689s.3-.677.837-.677H9.317ZM10.81,2.892V-1.049c0-1.4-.873-2.113-2.551-2.113A2.516,2.516,0,0,0,6.1-2.335l.953.931A1.286,1.286,0,0,1,8.2-1.9c.793,0,1.115.287,1.115.942v.3H7.9c-1.389,0-2.045.78-2.045,1.735a1.919,1.919,0,0,0,.5,1.345,2.041,2.041,0,0,0,1.528.527,1.816,1.816,0,0,0,1.47-.574v.517ZM5.031,1.008C5.031,0,4.433-.634,3.25-.75L2.308-.841c-.529-.046-.62-.3-.62-.518,0-.3.253-.574.85-.574a2.077,2.077,0,0,1,1.391.4l.919-.931a3.181,3.181,0,0,0-2.287-.7c-1.218,0-2.31.666-2.31,1.906C.251-.152.918.319,2,.422L2.94.514c.47.046.632.253.632.551,0,.449-.541.621-1.058.621a2.173,2.173,0,0,1-1.6-.563L-.059,2.1a3.253,3.253,0,0,0,2.551.862c1.414,0,2.54-.632,2.54-1.954M-1.082,2.892V-.934a2.219,2.219,0,0,0-.609-1.7A1.943,1.943,0,0,0-3.1-3.162a2.052,2.052,0,0,0-1.494.62v-.552H-6.057V2.892h1.494V-.727a.97.97,0,0,1,1-1.092A.964.964,0,0,1-2.575-.727V2.892Zm-6.63-8.227H-9.24v1.218h1.528Zm-.011,2.241H-9.217V2.892h1.494ZM-12.065-.658h-2.276A1.645,1.645,0,0,1-14.2-1.3a1.039,1.039,0,0,1,1-.621,1.039,1.039,0,0,1,1,.621,1.645,1.645,0,0,1,.139.643M-10.6.365V-.3A2.574,2.574,0,0,0-13.2-3.162c-1.551,0-2.608,1.1-2.608,3.055,0,2.424,1.356,3.069,2.768,3.069a2.852,2.852,0,0,0,2.276-.942l-.908-.885a1.657,1.657,0,0,1-1.356.563A1.237,1.237,0,0,1-14.341.365ZM-17.12,2.892V-.934a2.257,2.257,0,0,0-.655-1.7,2.087,2.087,0,0,0-1.471-.527,2.286,2.286,0,0,0-1.792.757,1.855,1.855,0,0,0-1.585-.757,2.1,2.1,0,0,0-1.494.62v-.552h-1.459V2.892h1.494V-.727a.97.97,0,0,1,1-1.092A.964.964,0,0,1-22.1-.727V2.892H-20.6V-.761a.965.965,0,0,1,1-1.058.963.963,0,0,1,.989,1.092V2.892ZM-28.426-.658H-30.7a1.645,1.645,0,0,1,.139-.643,1.039,1.039,0,0,1,1-.621,1.039,1.039,0,0,1,1,.621,1.645,1.645,0,0,1,.139.643m1.47,1.022V-.3a2.574,2.574,0,0,0-2.608-2.861c-1.551,0-2.608,1.1-2.608,3.055,0,2.424,1.356,3.069,2.768,3.069a2.846,2.846,0,0,0,2.275-.942l-.907-.885a1.657,1.657,0,0,1-1.356.563A1.237,1.237,0,0,1-30.7.365Zm-8.089-.632c0,.793-.1,1.562-.989,1.562s-.976-.77-.976-1.562.093-1.551.976-1.551.989.759.989,1.551m1.494,2.941V-3.094H-35v.563a1.752,1.752,0,0,0-1.459-.631,2.023,2.023,0,0,0-1.437.527A3.09,3.09,0,0,0-38.5-.267a3.117,3.117,0,0,0,.609,2.378,1.993,1.993,0,0,0,1.425.529,1.753,1.753,0,0,0,1.425-.6v.609a1.131,1.131,0,0,1-1.206,1.24,1.522,1.522,0,0,1-1.172-.46l-.931.942a2.8,2.8,0,0,0,2.171.782,2.432,2.432,0,0,0,2.632-2.483" transform="translate(38.504 5.335)" fill="#0069b4"/>
      </g>
    </g>
  </g>
</svg>
